<?xml version="1.0" encoding="UTF-8"?>
<svg width="850" height="244" xmlns="http://www.w3.org/2000/svg" xmlns:svg="http://www.w3.org/2000/svg">
 <g>
  <title>Layer 1</title>
  <path fill="#fffefe" opacity="0" d="m0,0l850,0l0,244l-850,0l0,-244z" id="svg_1"/>
  <path fill="#468c41" d="m178.429993,9.44c2.600006,-2.3 4.880005,-5.17 8.230011,-6.41c5.139999,4.63 11.059998,8.28 16.209991,12.9c-2.519989,1.199999 -4.759995,3.48 -7.599991,3.719999c-1.550003,-1.07 -2.850021,-2.449999 -4.419998,-3.48c-3.470001,-0.690001 -5.900009,2.360001 -8.490021,4.1c-22.839996,16.91 -41.960007,39.43 -52.669998,65.920002c-4.759995,12.299995 -8.110001,25.329987 -8.229996,38.579987c-0.470001,-0.029999 -1.400002,-0.079987 -1.860001,-0.109985c-0.860001,-25.110001 8.129997,-49.590004 21.37001,-70.590004c10.369995,-16.5 23.199997,-31.369999 37.459991,-44.63z" id="svg_2"/>
  <path fill="#468c41" d="m22.4,87.660004c9.660002,-3.970001 20.140001,-5.590004 30.519999,-6.040001c19.840004,0.599998 38.200005,9.939987 54.150002,21.129997c2.389999,1.959999 5.739998,3.269997 6.720001,6.470001c-15.620003,1.479996 -31.029999,5.449997 -46.800003,5.049995c-21.599998,-1.219986 -42.479998,-7.349998 -63.649998,-11.299995c3.76,-7.529999 11.55,-12.139999 19.06,-15.309998z" id="svg_3"/>
  <path fill="#99908e" d="m786.179993,103.010002c4.869995,-0.020004 9.75,-0.010002 14.630005,-0.010002c0.039978,18.790001 -0.109985,37.589996 0.080017,56.380005c6.919983,-7.950012 13.519958,-16.169998 20.269958,-24.270004c1.230042,-1.350006 2.180054,-3.089996 3.809998,-3.990005c6.100037,-0.340012 12.220032,-0.009995 18.340027,-0.110001c-9.130005,10.490005 -18.309998,20.930008 -27.51001,31.350006c10.169983,15 20.77002,29.710007 31.040039,44.639999c-6.240051,0 -12.480042,-0.009995 -18.710022,0c-7.440002,-11.169998 -15.070007,-22.199997 -22.530029,-33.350006c-1.98999,2.480011 -5.139954,4.790009 -4.819946,8.340012c0.019958,8.330002 0.019958,16.669998 0.039978,25c-4.880005,0.019989 -9.76001,0.019989 -14.640015,0c0.02002,-34.660004 0.030029,-69.320023 0,-103.980003z" id="svg_4"/>
  <path fill="#d61e04" d="m302.779999,140.800003c5.660004,-6.830002 14.700012,-9.839996 23.329987,-10.270004c5.380005,-0.110001 10.77002,-0.039993 16.160004,0.009995c-0.029999,4.650009 -0.019989,9.300003 -0.009979,13.950012c-7.940002,0.360001 -16.600006,-1.12001 -23.830017,2.949997c-6.48999,3.690002 -8.919983,11.539993 -9.149994,18.589996c-0.070007,13.490005 0,26.979996 -0.029999,40.470001c-4.829987,0.009995 -9.670013,0.009995 -14.5,0c0,-13.149994 -0.019989,-26.309998 0,-39.460007c0.160004,-9.209991 1.959991,-18.979996 8.029999,-26.23999z" id="svg_5"/>
  <path fill="#d61e04" d="m367.769989,140.820007c5.670013,-6.860001 14.730011,-9.87001 23.380005,-10.290009c5.369995,-0.119995 10.740021,-0.020004 16.110016,-0.020004c-0.01001,4.650009 -0.02002,9.300003 0.019989,13.950012c-8.959991,0.459991 -19.540009,-1.540009 -26.75,5.139999c-6.519989,6.23999 -6.48999,15.980011 -6.279999,24.349991c0,10.850006 0,21.699997 0,32.550003c-4.829987,0.009995 -9.670013,0.009995 -14.5,0c0,-13.149994 -0.01001,-26.300003 0,-39.440002c0.160004,-9.209991 1.950012,-18.979996 8.019989,-26.23999z" id="svg_6"/>
  <path fill="#d61e04" d="m51.23,142.169998c5.27,-7.569992 14.77,-11.119995 23.740002,-11.179993c8.68,0 17.349998,0.019989 26.029999,0.009995c0,4.669998 0,9.330002 0,14c-8.010002,0.080002 -16.019997,-0.169998 -24.029999,0.139999c-4.639999,0.100006 -9.529999,1.509995 -12.660004,5.130005c-4.349998,4.779999 -5.329998,11.529999 -5.539997,17.75c-0.049999,6.169998 0.630001,12.73999 4.09,18.019989c2.849998,4.310013 7.989998,6.590012 13.040001,6.740005c8.360001,0.449997 16.739998,0.119995 25.099998,0.220001c0,4.669998 0,9.330002 0,14c-8.669998,-0.009995 -17.349998,0 -26.019997,0.009995c-8.990013,-0.059998 -18.490002,-3.62001 -23.810013,-11.169998c-5.560001,-7.730011 -6.740002,-17.580002 -6.860001,-26.849991c0.139999,-9.26001 1.330002,-19.12001 6.919998,-26.820023l0.000011,0.000015z" id="svg_7"/>
  <path fill="#d61e04" d="m119,131c9.330002,0.009995 18.660004,-0.020004 28,0c9.139999,0.300003 18.779999,2.929993 25.330002,9.660004c6.319992,6.37999 8.720001,15.569992 9.149994,24.309998c0.110001,13.979996 -0.050003,27.979996 0.080002,41.970001c-4.780014,0.110001 -9.560013,0.050003 -14.340012,0.059998c0.020004,-12 0,-24 0.020004,-36c-0.080002,-5.929993 -0.520004,-12.270004 -3.980011,-17.309998c-3.5,-5.350006 -9.970001,-7.889999 -16.139999,-8.339996c-9.360001,-0.660004 -18.75,-0.230011 -28.120003,-0.350021c0,-4.669998 0,-9.330002 0,-14l0.000023,0.000015z" id="svg_8"/>
  <path fill="#d61e04" d="m210.360001,141.360001c7.160004,-7.860001 18.330002,-10.509995 28.610001,-10.380005c9.179993,-0.190002 18.859985,0.480011 27.019989,5.100021c5.77002,3.259979 9.779999,9.309998 10.480011,15.899979c0.700012,5.919998 0.279999,12.340012 -2.809998,17.580002c-2.660004,4.25 -7.76001,6.440002 -12.649994,6.440002c-10.090012,0.020004 -20.180008,-0.009995 -30.26001,0c-0.009995,-4.669998 -0.009995,-9.330002 0,-14c7.419998,-0.059998 14.839996,0.119995 22.259995,-0.100006c3.030014,-0.12999 6.919998,-0.319992 8.509995,-3.409988c1.76001,-4.090012 -0.819977,-8.779999 -4.669983,-10.529999c-6.5,-3.070023 -13.940002,-2.900009 -20.960022,-2.580002c-7.37999,0.509979 -14.779999,4.789978 -17.37999,11.979996c-2.689987,7.399994 -2.860001,15.889999 -0.269989,23.339996c2.399979,6.690002 9.069992,10.900009 15.929977,11.720001c9.320023,1.029999 18.720001,0.410004 28.080017,0.580002c0,4.669998 0,9.330002 0,14c-8.450012,-0.009995 -16.890015,0 -25.340012,0.009995c-9.639999,-0.169998 -19.860001,-3.039993 -26.559998,-10.349991c-6.720001,-7.470001 -8.570007,-17.960007 -8.62001,-27.699997c0.070007,-9.700012 1.860001,-20.190002 8.630005,-27.600021l0.000015,0.000015z" id="svg_9"/>
  <path fill="#d61e04" d="m423.75,131c4.829987,0 9.660004,0 14.5,0c0.059998,13.639999 -0.100006,27.279999 0.070007,40.919998c0.149994,8.130005 4.630005,16.650009 12.73999,19.220001c9.48999,3.009995 19.640015,1.449997 29.429993,1.860001c-0.019989,-20.649994 0.040009,-41.309998 -0.029999,-61.960007c4.77002,-0.069992 9.540009,-0.029999 14.309998,-0.039993c0,28.330002 -0.009979,56.649994 0,84.979996c-0.049988,7.01001 -1.959991,14.540009 -7.289978,19.440002c-5.160004,4.940002 -12.580017,6.400009 -19.480011,6.580002c-10,0.020004 -20,-0.009995 -30,0c0,-4.669998 0,-9.330002 0,-14c9.369995,-0.039993 18.73999,0.080002 28.100006,-0.070007c4.160004,-0.059998 8.880005,-0.75 11.600006,-4.289993c3.559998,-4.740005 2.649994,-11.080002 2.789978,-16.639999c-10.48999,-0.410004 -21.149994,1.029999 -31.48999,-1.199997c-7.160004,-1.610001 -14.119995,-5.300003 -18.450012,-11.37001c-5.149963,-7 -6.659943,-15.929993 -6.799988,-24.429993c-0.01001,-13 0,-26 0,-39z" id="svg_10"/>
  <path fill="#99908e" d="m515.179993,131.009995c4.76001,-0.019989 9.530029,0 14.299988,-0.039993c0.160034,15.660004 -0.029968,31.319992 0.090027,46.979996c0.130005,4.169998 0.25,8.930008 3.52002,12c3.719971,3.330002 9.349976,3.380005 13.940002,2.150009c5.129944,-1.51001 7.209961,-7.220001 7.079956,-12.12001c0.190002,-16.309998 0.059998,-32.639999 0.059998,-48.949997c4.799988,-0.050003 9.610046,-0.069992 14.420044,0.029999c-0.120056,15.650009 -0.01001,31.290009 -0.070007,46.930008c0.089966,3.699997 0.119995,7.830002 2.690002,10.779999c3.449951,4.209991 9.699951,4.310013 14.579956,3.099991c4.720032,-1.229996 7.240051,-6.190002 7.179993,-10.789978c0.080017,-16.690002 0.01001,-33.390015 0.030029,-50.080002c4.840027,0 9.679993,0 14.52002,0c0.029968,16.659988 0.019958,33.320007 0.01001,49.970001c-0.060059,7.669998 -2.050049,16.149979 -8.410034,21.059998c-6.820007,5.309998 -15.969971,5.490005 -24.179993,4.740005c-5.380005,-0.600006 -10.640015,-3.139999 -13.48999,-7.900009c-2.700012,4.320007 -7.27002,7.139999 -12.320007,7.75c-8.340027,0.900009 -17.599976,0.970001 -24.780029,-4c-6.549988,-4.559998 -9.019958,-12.919998 -9.139954,-20.559998c-0.050049,-17.020004 0.019958,-34.029999 -0.030029,-51.050003l0,-0.000015z" id="svg_11"/>
  <path fill="#99908e" d="m655.419983,131.5c10.480042,-1.229996 22.030029,-1.020004 31.140015,5.020004c8.369995,5.539993 12.159973,15.73999 12.97998,25.37999c0.830017,11.060013 0.340027,23.110001 -6.049988,32.610001c-4.940002,7.490005 -13.820007,11.330002 -22.48999,12.279999c-9.25,0.690002 -19.159973,0.540009 -27.390015,-4.279999c-6.73999,-3.769989 -11.179993,-10.730011 -13.070007,-18.090012c-2.139954,-8.219986 -2.22998,-16.889999 -1.149963,-25.269989c1.130005,-7.909988 4.339966,-15.939987 10.659973,-21.110001c4.359985,-3.599991 9.820007,-5.659988 15.369995,-6.539993z" id="svg_12"/>
  <path fill="#99908e" d="m741.76001,131.759995c8,-2.069992 16.330017,-1.090012 24.5,-1.279999c-0.01001,4.650009 -0.02002,9.290009 0.049988,13.930008c-6.559998,0.37999 -13.26001,-0.389999 -19.690002,1.25c-4.73999,1.309998 -8.820007,4.720001 -10.830017,9.220001c-2.359985,5.009979 -2.639954,10.659988 -2.549988,16.110001c0.040039,11.840012 0.01001,23.679993 0.02002,35.519989c-4.840027,0.040009 -9.679993,0.040009 -14.52002,0c-0.02002,-11.509995 0.01001,-23.009995 -0.01001,-34.519989c-0.190002,-9.680008 0.559998,-19.990005 5.940002,-28.360001c3.75,-6.110001 10.220032,-10.150009 17.090027,-11.87001z" id="svg_13"/>
  <path fill="#222222" d="m658.5,145.699997c7.179993,-1.190002 15.570007,-0.619995 21.039978,4.770004c4.970032,5.110001 5.929993,12.660004 5.840027,19.479996c-0.220032,6.62001 -1.660034,13.970001 -6.97998,18.449997c-5.440002,4.660004 -13.200012,4.980011 -19.950012,3.889999c-6.100037,-1.059998 -11.460022,-5.459976 -13.390015,-11.389999c-2.51001,-7.639999 -2.51001,-16.179977 0.01001,-23.819977c1.929993,-5.940002 7.309998,-10.330002 13.429993,-11.380005l0,-0.000015z" id="svg_14"/>
 </g>

</svg>